{"title":"VA - Headdock - Secret Waves - 320 kbps[November 2009]","uid":5145271,"size":166823872,"categoryP":"audio","categoryS":"music","magnet":"?xt=urn:btih:69a435cca277b38b7e9d7e3ddab693fd2bd88470&amp;dn=VA+-+Headdock+-+Secret+Waves+-+320+kbps%5BNovember+2009%5D&amp;tr=udp%3A%2F%2Ftracker.openbittorrent.com%3A80&amp;tr=udp%3A%2F%2Fopen.demonii.com%3A1337&amp;tr=udp%3A%2F%2Ftracker.coppersurfer.tk%3A6969&amp;tr=udp%3A%2F%2Fexodus.desync.com%3A6969","seeders":0,"leechers":0,"uploader":"headdock","files":6,"time":1257228580,"description":"VA - Headdock - Secret Waves - 320 kbps[November 2009]\n\n\n\n\n\n\n\nGeneral\nComplete name                    : Headdock - Secret Waves - 320 kbps[November 2009]\nFormat                           : MPEG Audio\nFile size                        : 159 MiB\nDuration                         : 1h 9mn\nOverall bit rate                 : 320 Kbps\nWriting library                  : LAME3.96.1\n\nAudio\nFormat                           : MPEG Audio\nFormat version                   : Version 1\nFormat profile                   : Layer 3\nDuration                         : 1h 9mn\nBit rate mode                    : Constant\nBit rate                         : 320 Kbps\nChannel(s)                       : 2 channels\nSampling rate                    : 44.1 KHz\nResolution                       : 16 bits\nWriting library                  : LAME3.96.1\n\n\nTracklist:\n\nTRACK 01 AUDIO\n\nPERFORMER &quot;Liam Shachar&quot;\nTITLE &quot;Mystifying Memory&quot;\nINDEX 01 00:00:00\n\nTRACK 02 AUDIO\n\nPERFORMER &quot;Easton Feat. NÃƒÂ©o&quot;\nTITLE &quot;Transmitted Gift (Mike Foyle Remix)&quot;\nINDEX 01 06:44:40\n\nTRACK 03 AUDIO\n\nPERFORMER &quot;Dr Willis&quot;\nTITLE &quot;Pressure Point (Dart Rayne Tech Mix)&quot;\nINDEX 01 12:59:40\n\nTRACK 04 AUDIO\n\nPERFORMER &quot;Tenth Planet&quot;\nTITLE &quot;Ghosts (Redanka's Spooky Disko Vocal Mix)&quot;\nINDEX 01 19:14:40\n\nTRACK 05 AUDIO\n\nPERFORMER &quot;Chephren Blake Feat. Meighan Nealon&quot;\nTITLE &quot;Year After (Mike Emvee Remix)&quot;\nINDEX 01 23:58:61\n\nTRACK 06 AUDIO\n\nPERFORMER &quot;Bluebear Project&quot;\nTITLE &quot;Sensation (Original Mix)&quot;\nINDEX 01 32:24:20\n\nTRACK 07 AUDIO\n\nPERFORMER &quot;Cplusc Pres. Global Essence&quot;\nTITLE &quot;Never Say Goodbye (Paul Allen Remix)&quot;\nINDEX 01 38:42:34\n\nTRACK 08 AUDIO\n\nPERFORMER &quot;Crazy Rockerz&quot;\nTITLE &quot;Nostagia 2k9&quot;\nINDEX 01 45:09:24\n\nTRACK 09 AUDIO\n\nPERFORMER &quot;Dr Willis&quot;\nTITLE &quot;Pressure Point (Will Atkinson Remix)&quot;\nINDEX 01 49:59:35\n\nTRACK 10 AUDIO\n\nPERFORMER &quot;Distortion World &amp; Anisotropy&quot;\nTITLE &quot;Three Rivers (Jeff Montalvo Remix)&quot;\nINDEX 01 54:47:08\n\nTRACK 11 AUDIO\n\nPERFORMER &quot;Crazy Rockerz&quot;\nTITLE &quot;Horisontal Vision&quot;\nINDEX 01 60:52:24 - 69:20:00\n","torrent":{"xt":"urn:btih:69a435cca277b38b7e9d7e3ddab693fd2bd88470","amp;dn":"VA+-+Headdock+-+Secret+Waves+-+320+kbps%5BNovember+2009%5D","amp;tr":["udp%3A%2F%2Ftracker.openbittorrent.com%3A80","udp%3A%2F%2Fopen.demonii.com%3A1337","udp%3A%2F%2Ftracker.coppersurfer.tk%3A6969","udp%3A%2F%2Fexodus.desync.com%3A6969"],"infoHash":"69a435cca277b38b7e9d7e3ddab693fd2bd88470","infoHashBuffer":{"type":"Buffer","data":[105,164,53,204,162,119,179,139,126,157,126,61,218,182,147,253,43,216,132,112]},"announce":[],"urlList":[]}}